<svg xmlns="http://www.w3.org/2000/svg" xmlns:xlink="http://www.w3.org/1999/xlink" version="1.1" width="1000" height="1000" viewBox="0 0 1000 1000" xml:space="preserve">
<desc>Created with Fabric.js 3.5.0</desc>
<defs>
</defs>
<rect x="0" y="0" width="100%" height="100%" fill="rgba(255,255,255,0)"/>
<g transform="matrix(1.5536 0 0 1.6391 541.9976 465.3172)" id="320137">
<g style="" vector-effect="non-scaling-stroke">
		<g transform="matrix(1 0 0 1 0 0)">
<path style="stroke: none; stroke-width: 1; stroke-dasharray: none; stroke-linecap: butt; stroke-dashoffset: 0; stroke-linejoin: miter; stroke-miterlimit: 4; is-custom-font: none; font-file-url: none; fill: rgb(244,244,244); fill-opacity: 0; fill-rule: nonzero; opacity: 1;" transform=" translate(-430, -430)" d="m 0 0 h 860 v 860 h -860 z" stroke-linecap="round"/>
</g>
		<g transform="matrix(1 0 0 1 -31.5 32)">
<path style="stroke: none; stroke-width: 1; stroke-dasharray: none; stroke-linecap: butt; stroke-dashoffset: 0; stroke-linejoin: miter; stroke-miterlimit: 4; is-custom-font: none; font-file-url: none; fill: rgb(17,70,102); fill-rule: nonzero; opacity: 1;" transform=" translate(214.5, -203)" d="m 0 0 h 17 l 12 3 l 12 6 l 10 9 l 6 7 l 6 12 l 3 13 l 5 118 v 30 l -11 1 l -51 2 h -22 l -3 9 l -13 27 h 14 l 75 -3 h 13 l 1 11 v 18 l -4 14 l -6 11 l -9 10 l -12 8 l -11 4 l -5 1 l -62 3 l -32 1 l -2 6 l -14 29 l -13 28 l -10 20 l -7 6 l -6 2 l -8 -1 l -28 -13 l -31 -15 l -28 -13 l -35 -17 l -28 -13 l -21 -10 l -14 -3 l -13 -7 l -5 -4 v -2 l -6 -2 l -29 -14 l -28 -13 l -37 -18 l -28 -13 l -37 -18 l -5 -5 l -3 -7 v -7 l 7 -16 l 16 -33 l 13 -28 l 16 -33 l 13 -28 l 15 -31 l 11 -23 l 5 -10 l 7 -5 l 3 -1 h 9 l 20 9 l 29 14 l 5 -2 l 9 -6 l 11 -4 l 5 -1 l 61 -3 l 127 -5 z" stroke-linecap="round"/>
</g>
		<g transform="matrix(1 0 0 1 50 -70.5)">
<path style="stroke: none; stroke-width: 1; stroke-dasharray: none; stroke-linecap: butt; stroke-dashoffset: 0; stroke-linejoin: miter; stroke-miterlimit: 4; is-custom-font: none; font-file-url: none; fill: rgb(235,104,6); fill-rule: nonzero; opacity: 1;" transform=" translate(133, -100.5)" d="m 0 0 h 17 l 12 3 l 12 6 l 10 9 l 6 7 l 6 12 l 3 13 l 5 118 v 30 l -11 1 l -51 2 h -21 v -11 l -4 -8 l -5 -4 l -24 -11 l -16 -8 l -29 -14 l -28 -13 l -80 -38 l -27 -13 l -28 -13 l -33 -16 l -28 -13 l -23 -11 l 1 -3 l 11 -7 l 11 -4 l 5 -1 l 61 -3 l 127 -5 z" stroke-linecap="round"/>
</g>
		<g transform="matrix(1 0 0 1 -42.5 -36)">
<path style="stroke: none; stroke-width: 1; stroke-dasharray: none; stroke-linecap: butt; stroke-dashoffset: 0; stroke-linejoin: miter; stroke-miterlimit: 4; is-custom-font: none; font-file-url: none; fill: rgb(0,0,0); fill-rule: nonzero; opacity: 1;" transform=" translate(-171.5, -132)" d="m 0 0 h 9 l 20 9 l 37 18 l 28 13 l 35 17 l 28 13 l 33 16 l 28 13 l 33 16 l 28 13 l 40 19 l 52 25 l 8 4 l 5 6 l 2 5 v 8 l -9 20 l -17 35 l -7 14 l -6 -2 l -40 -19 l -58 -27 l -36 -17 l -28 -13 l -34 -16 l -28 -13 l -34 -16 l -28 -13 l -34 -16 l -28 -13 l -34 -16 l -8 -4 l 1 -7 l 16 -33 l 11 -23 l 5 -10 l 7 -5 z" stroke-linecap="round"/>
</g>
		<g transform="matrix(1 0 0 1 -33.5 -56.5)">
<path style="stroke: none; stroke-width: 1; stroke-dasharray: none; stroke-linecap: butt; stroke-dashoffset: 0; stroke-linejoin: miter; stroke-miterlimit: 4; is-custom-font: none; font-file-url: none; fill: rgb(17,70,102); fill-rule: nonzero; opacity: 1;" transform=" translate(-180.5, -111.5)" d="m 0 0 h 9 l 20 9 l 37 18 l 28 13 l 35 17 l 28 13 l 33 16 l 28 13 l 33 16 l 28 13 l 40 19 l 52 25 l 8 4 l 5 6 l 2 5 v 8 l -9 20 l -4 8 l -1 -2 l -6 -2 l -38 -18 l -16 -7 l -15 -7 l -33 -16 l -28 -13 l -71 -33 l -40 -19 l -28 -13 l -34 -16 l -28 -13 l -36 -17 l -20 -9 h -4 l 2 -6 l 11 -23 l 4 -5 z" stroke-linecap="round"/>
</g>
		<g transform="matrix(1 0 0 1 -79 18)">
<path style="stroke: none; stroke-width: 1; stroke-dasharray: none; stroke-linecap: butt; stroke-dashoffset: 0; stroke-linejoin: miter; stroke-miterlimit: 4; is-custom-font: none; font-file-url: none; fill: rgb(244,244,244); fill-opacity: 0; fill-rule: nonzero; opacity: 1;" transform=" translate(-147, -84)" d="m 0 0 l 9 3 l 35 17 l 28 13 l 31 15 l 28 13 l 29 14 l 28 13 l 31 15 l 28 13 l 31 15 l 26 12 l 1 2 l -10 22 l -3 1 l -27 -13 l -28 -13 l -27 -13 l -28 -13 l -31 -15 l -28 -13 l -33 -16 l -28 -13 l -31 -15 l -28 -13 l -14 -7 l 9 -20 z" stroke-linecap="round"/>
</g>
		<g transform="matrix(1 0 0 1 187 103.5)">
<path style="stroke: none; stroke-width: 1; stroke-dasharray: none; stroke-linecap: butt; stroke-dashoffset: 0; stroke-linejoin: miter; stroke-miterlimit: 4; is-custom-font: none; font-file-url: none; fill: rgb(235,105,7); fill-rule: nonzero; opacity: 1;" transform=" translate(56, -40.5)" d="m 0 0 h 13 l 1 11 v 18 l -4 14 l -6 11 l -9 10 l -12 8 l -11 4 l -5 1 l -62 3 l -31 1 l 1 -5 l 16 -33 l 13 -28 l 6 -11 l 39 -2 z" stroke-linecap="round"/>
</g>
		<g transform="matrix(1 0 0 1 137 -39.5)">
<path style="stroke: none; stroke-width: 1; stroke-dasharray: none; stroke-linecap: butt; stroke-dashoffset: 0; stroke-linejoin: miter; stroke-miterlimit: 4; is-custom-font: none; font-file-url: none; fill: rgb(246,176,55); fill-rule: nonzero; opacity: 1;" transform=" translate(52, -34.5)" d="m 0 0 h 9 l 3 66 l -8 1 l -56 2 l -28 -13 l -33 -16 l -2 -2 l -1 -33 z" stroke-linecap="round"/>
</g>
		<g transform="matrix(1 0 0 1 -203.5 82.5)">
<path style="stroke: none; stroke-width: 1; stroke-dasharray: none; stroke-linecap: butt; stroke-dashoffset: 0; stroke-linejoin: miter; stroke-miterlimit: 4; is-custom-font: none; font-file-url: none; fill: rgb(244,244,244); fill-opacity: 0; fill-rule: nonzero; opacity: 1;" transform=" translate(-77.5, -42.5)" d="m 0 0 l 6 2 l 30 15 l 19 10 l 28 14 l 19 10 l 32 16 l 20 11 l 1 7 l -19 -9 l -23 -12 l -28 -14 l -19 -10 l -28 -14 l -19 -10 l -18 -9 z" stroke-linecap="round"/>
</g>
		<g transform="matrix(1 0 0 1 -191.5 61)">
<path style="stroke: none; stroke-width: 1; stroke-dasharray: none; stroke-linecap: butt; stroke-dashoffset: 0; stroke-linejoin: miter; stroke-miterlimit: 4; is-custom-font: none; font-file-url: none; fill: rgb(244,244,244); fill-opacity: 0; fill-rule: nonzero; opacity: 1;" transform=" translate(-77.5, -42)" d="m 0 0 l 5 1 l 39 20 l 26 13 l 19 10 l 30 15 l 19 10 l 16 8 l 1 7 l -6 -2 l -28 -14 l -19 -10 l -30 -15 l -19 -10 l -32 -16 l -20 -11 z" stroke-linecap="round"/>
</g>
		<g transform="matrix(1 0 0 1 -191 34)">
<path style="stroke: none; stroke-width: 1; stroke-dasharray: none; stroke-linecap: butt; stroke-dashoffset: 0; stroke-linejoin: miter; stroke-miterlimit: 4; is-custom-font: none; font-file-url: none; fill: rgb(244,244,244); fill-opacity: 0; fill-rule: nonzero; opacity: 1;" transform=" translate(-65, -36)" d="m 0 0 l 19 9 l 17 9 l 66 33 l 19 10 l 9 5 v 6 l -19 -9 l -42 -21 l -19 -10 l -46 -23 l -4 -3 z" stroke-linecap="round"/>
</g>
		<g transform="matrix(1 0 0 1 -132 145)">
<path style="stroke: none; stroke-width: 1; stroke-dasharray: none; stroke-linecap: butt; stroke-dashoffset: 0; stroke-linejoin: miter; stroke-miterlimit: 4; is-custom-font: none; font-file-url: none; fill: rgb(237,118,15); fill-rule: nonzero; opacity: 1;" transform=" translate(-15, -7)" d="m 0 0 l 5 1 l 25 12 v 1 l -8 -1 l -10 -4 l -11 -7 z" stroke-linecap="round"/>
</g>
</g>
</g>
</svg>